<svg width="800" height="800" viewBox="0 0 800 800" fill="none" xmlns="http://www.w3.org/2000/svg">
<path d="M163 377L190 249.5L282 199L332 195L393 183.5L518.5 157.5H572.5L598 162.5L687 270.5L662 394L567.5 457L461 471.5L357 494L323 500H275L249 492L261 412L163 377Z" fill="white"/>
<path d="M700.374 220.188L699.171 218.984C668.874 188.984 637.062 169.75 602.062 160.203L599.249 159.469L596.03 158.641C568.483 152.063 538.968 151.297 503.843 156.281L499.577 156.938L497.343 157.266C472.827 161.141 448.03 167.25 424.03 173.188C416.312 175.094 408.593 177 400.89 178.844C369.64 186.281 336.265 193.156 303.124 193.156C269.437 193.156 239.358 186 211.343 171.281L216.937 139.531C217.22 137.906 217.18 136.241 216.82 134.631C216.459 133.022 215.786 131.499 214.837 130.149C213.888 128.8 212.682 127.651 211.289 126.767C209.896 125.884 208.343 125.283 206.718 125C205.093 124.717 203.428 124.757 201.818 125.117C200.208 125.477 198.685 126.151 197.336 127.1C194.611 129.016 192.758 131.937 192.187 135.219L99.6084 660.438C99.3115 662.06 99.3387 663.726 99.6885 665.338C100.038 666.95 100.704 668.477 101.646 669.83C102.589 671.184 103.79 672.338 105.181 673.225C106.572 674.112 108.124 674.716 109.749 675C110.465 675.137 111.192 675.205 111.921 675.203C114.859 675.2 117.703 674.161 119.952 672.269C122.2 670.377 123.711 667.754 124.218 664.859L162.233 449.313C188.921 472.953 216.921 488.563 247.358 496.859L250.155 497.578L253.405 498.406C269.616 502.222 286.221 504.105 302.874 504.016C317.182 503.943 331.468 502.863 345.624 500.781L349.89 500.141L352.108 499.813C376.624 495.938 401.421 489.828 425.421 483.891C433.14 481.984 440.858 480.078 448.562 478.25C479.812 470.813 513.171 463.938 546.327 463.938C582.093 463.938 613.812 472 643.28 488.563L647.077 490.703L647.89 486.422C653.733 455.547 659.577 425.047 665.249 395.797V395.594C671.062 365.609 676.89 336 682.562 307.594V307.359C688.374 278.203 694.202 249.547 699.874 221.953L700.374 220.188ZM543.749 457.609C512.499 457.953 481.171 464.094 451.749 471C451.749 470.844 451.749 470.703 451.749 470.563C457.155 437.729 462.551 404.948 467.937 372.219C493.687 366.625 526.78 360.797 560.015 362.766C559.671 364.781 559.312 366.813 558.968 368.844L558.312 372.578C557.812 375.505 557.291 378.432 556.749 381.359L556.187 384.625C552.171 408.516 547.968 432.953 543.749 457.609ZM291.077 284.172L292.39 276.547C292.64 275.172 292.874 273.813 293.108 272.422C293.765 268.625 294.421 264.797 295.077 260.969C295.086 260.87 295.086 260.771 295.077 260.672C298.546 240.547 302.062 220.047 305.593 199.438C336.843 199.109 368.093 192.953 397.593 186.063V186.297C392.187 219.193 386.78 252.037 381.374 284.828C355.608 290.422 322.53 296.25 289.296 294.281L290.046 289.922C290.421 287.938 290.749 286.031 291.077 284.109V284.172ZM462.53 366.984C449.64 369.859 436.593 373.063 423.952 376.188C406.452 380.516 388.405 384.969 370.608 388.516C376.025 355.766 381.447 322.953 386.874 290.078C399.765 287.203 412.812 284 425.452 280.875C442.952 276.547 460.999 272.094 478.812 268.547C473.374 301.297 467.947 334.109 462.53 366.984ZM281.983 300C281.78 301.172 281.593 302.328 281.39 303.5C280.952 305.969 280.53 308.453 280.093 310.938C279.827 312.5 279.577 313.922 279.312 315.422C278.858 318.063 278.39 320.719 277.937 323.375L277.608 325.219C273.624 348.156 269.655 370.844 265.765 393C234.515 387.469 206.124 374.531 179.108 353.563L193.827 270.047C220.371 286.987 250.614 297.263 281.983 300ZM660.108 389.906C632.509 371.281 600.622 359.989 567.452 357.094C567.624 356.109 567.78 355.141 567.952 354.156C568.452 351.323 568.942 348.505 569.421 345.703L569.843 343.313C570.405 340.031 570.983 336.734 571.546 333.469L571.64 332.938C573.14 324.333 574.629 315.776 576.108 307.266C576.671 304.141 577.223 300.984 577.765 297.797V297.641C578.468 293.641 579.155 289.656 579.858 285.688C579.937 285.219 580.015 284.75 580.108 284.281L582.03 273.344L582.155 272.672C582.655 269.813 583.155 266.984 583.64 264.156C617.093 270.094 647.405 284.547 676.171 308.281C670.89 334.578 665.483 362.047 660.077 389.875L660.108 389.906ZM594.89 164.781C593.671 171.552 592.452 178.385 591.233 185.281L591.108 185.953C588.963 197.943 586.812 210.073 584.655 222.344C584.577 222.719 584.515 223.109 584.452 223.5C582.504 234.521 580.546 245.615 578.577 256.781C551.671 252.859 522.187 254.078 486.39 260.578C488.369 248.63 490.348 236.688 492.327 224.75L494.483 211.828C495.093 208.125 495.702 204.438 496.327 200.734C498.41 188.047 500.52 175.37 502.655 162.703C538.077 157.531 567.515 158.188 594.89 164.781ZM254.515 492.188C255.754 485.313 256.994 478.386 258.233 471.406V470.984C262.374 447.766 266.577 424.109 270.733 400.141H270.937C274.062 400.609 277.312 400.984 280.562 401.313H281.218C288.171 401.969 295.28 402.328 302.687 402.328C322.885 402.121 343.023 400.097 362.858 396.281C361.89 402.073 360.926 407.87 359.968 413.672C355.52 440.568 351.062 467.401 346.593 494.172C311.327 499.453 281.89 498.797 254.515 492.188Z" fill="black"/>
</svg>
