<svg width="521" height="197" viewBox="0 0 521 197" fill="none" xmlns="http://www.w3.org/2000/svg">
<g clip-path="url(#clip0_1715_650)">
<g clip-path="url(#clip1_1715_650)">
<path d="M82.78 73.42C83.9097 72.2848 84.7903 70.9264 85.3655 69.4317C85.9407 67.937 86.198 66.3388 86.1208 64.7391C86.0437 63.1394 85.6338 61.5733 84.9174 60.1409C84.2009 58.7085 83.1937 57.4413 81.96 56.42C79.6858 54.6126 76.8215 53.7141 73.9225 53.8989C71.0234 54.0837 68.2963 55.3385 66.27 57.42L61.83 61.86L57.15 66.5C54.6109 69.1219 51.5755 71.2124 48.2206 72.6496C44.8656 74.0869 41.2582 74.8422 37.6085 74.8715C33.9588 74.9008 30.3397 74.2035 26.9622 72.8203C23.5846 71.4371 20.516 69.3957 17.9352 66.8148C15.3543 64.234 13.3129 61.1654 11.9297 57.7878C10.5465 54.4103 9.84925 50.7912 9.87856 47.1415C9.90786 43.4918 10.6631 39.8844 12.1004 36.5294C13.5376 33.1745 15.6281 30.1391 18.25 27.6L22.92 22.92C24.8005 21.0437 26.0819 18.6515 26.6018 16.0464C27.1216 13.4413 26.8567 10.7405 25.8405 8.28613C24.8242 5.83173 23.1024 3.73415 20.8931 2.25907C18.6838 0.783991 16.0865 -0.00222627 13.43 4.73495e-06C9.86814 4.73495e-06 6.45217 1.41495 3.93356 3.93356C1.41494 6.45217 0 9.86815 0 13.43L0 98.91C0 102.472 1.41494 105.888 3.93356 108.406C6.45217 110.925 9.86814 112.34 13.43 112.34H38.3C40.064 112.341 41.8109 111.994 43.4409 111.32C45.071 110.646 46.5522 109.657 47.8 108.41L82.78 73.42Z" fill="#15B788"/>
<path d="M73.9999 1.88292e-06C72.2359 -0.000932173 70.489 0.345658 68.859 1.01998C67.2289 1.69429 65.7477 2.68313 64.4999 3.93L29.4999 38.93C27.3437 41.0968 26.1366 44.0314 26.1441 47.0883C26.1516 50.1451 27.3731 53.0738 29.5399 55.23C31.7067 57.3862 34.6414 58.5933 37.6982 58.5858C40.755 58.5783 43.6837 57.3568 45.8399 55.19L50.5099 50.51L54.7799 46.25C65.3599 35.66 82.5999 35 93.4999 45.26C96.1779 47.786 98.3221 50.8234 99.8056 54.1927C101.289 57.5619 102.082 61.1944 102.137 64.8753C102.192 68.5563 101.508 72.2109 100.126 75.6229C98.7437 79.0349 96.6912 82.1351 94.0899 84.74L89.4199 89.42C87.5394 91.2963 86.2581 93.6885 85.7382 96.2936C85.2183 98.8987 85.4832 101.599 86.4995 104.054C87.5157 106.508 89.2375 108.606 91.4468 110.081C93.6561 111.556 96.2535 112.342 98.9099 112.34C102.472 112.34 105.888 110.925 108.406 108.406C110.925 105.888 112.34 102.472 112.34 98.91V13.43C112.34 9.86814 110.925 6.45217 108.406 3.93356C105.888 1.41494 102.472 1.88292e-06 98.9099 1.88292e-06H73.9999Z" fill="#1395BA"/>
</g>
</g>
<path d="M461.96 18.08H456.2L423.24 112H401L441.16 0H476.84L517 112H494.76L461.96 18.08ZM425.32 68.16H490.6V86.24H425.32V68.16Z" fill="#212121"/>
<path d="M309.853 79.8431C310.382 82.7712 311.547 85.3333 313.347 87.5294C315.147 89.7255 317.476 91.451 320.335 92.7059C323.3 93.8562 326.741 94.4314 330.659 94.4314C336.8 94.4314 341.406 93.0719 344.476 90.3529C347.547 87.5294 349.082 84.1307 349.082 80.1569C349.082 77.0196 348.129 74.4052 346.224 72.3137C344.318 70.2222 341.618 68.4444 338.124 66.9804C334.735 65.5163 330.765 64.1046 326.212 62.7451C321.976 61.4902 317.794 60.1307 313.665 58.6667C309.535 57.2026 305.776 55.3725 302.388 53.1765C299 50.9804 296.3 48.1569 294.288 44.7059C292.382 41.1503 291.429 36.7059 291.429 31.3725C291.429 24.6797 293.071 18.9804 296.353 14.2745C299.741 9.56863 304.347 6.01307 310.171 3.60784C315.994 1.20261 322.718 0 330.341 0C336.8 0 342.624 0.941177 347.812 2.82353C353 4.6013 357.341 7.26797 360.835 10.8235C364.435 14.2745 367.082 18.5621 368.776 23.6863L348.924 29.0196C348.394 26.719 347.229 24.732 345.429 23.0588C343.629 21.3856 341.459 20.0784 338.918 19.1373C336.376 18.0915 333.624 17.5686 330.659 17.5686C327.482 17.4641 324.571 17.9346 321.924 18.9804C319.276 20.0261 317.159 21.5425 315.571 23.5294C313.982 25.5163 313.188 27.817 313.188 30.4314C313.188 33.3595 314.088 35.7124 315.888 37.4902C317.688 39.1634 320.071 40.6274 323.035 41.8823C326 43.0327 329.335 44.183 333.041 45.3333C337.488 46.5882 341.935 48.0523 346.382 49.7255C350.829 51.2941 354.906 53.3333 358.612 55.8431C362.318 58.2484 365.282 61.3333 367.506 65.098C369.835 68.8627 371 73.6209 371 79.3725C371 85.4379 369.518 90.9281 366.553 95.8431C363.694 100.758 359.353 104.68 353.529 107.608C347.706 110.536 340.4 112 331.612 112C324.412 112 317.847 110.954 311.918 108.863C306.094 106.771 301.276 103.739 297.465 99.7647C293.653 95.6863 291.165 90.8758 290 85.3333L309.853 79.8431Z" fill="#212121"/>
<path d="M204.011 18.08H198.152L164.623 112H142L182.852 0H219.148L260 112H237.377L204.011 18.08ZM166.739 68.16H233.145V86.24H166.739V68.16Z" fill="#212121"/>
<path d="M3.57527 153.8H9.78527V186H3.57527V153.8ZM42.6975 153.8V186H36.3495L22.2735 163.644V186H16.0635V153.8H22.3655L36.4875 176.156V153.8H42.6975ZM48.9464 153.8H71.5784V158.998H55.1564V167.186H67.4384V172.2H55.1564V186H48.9464V153.8ZM91.027 186.322C88.7577 186.322 86.6263 185.923 84.633 185.126C82.6397 184.329 80.8917 183.209 79.389 181.768C77.917 180.296 76.7517 178.563 75.893 176.57C75.0343 174.546 74.605 172.323 74.605 169.9C74.605 167.477 75.0343 165.269 75.893 163.276C76.7517 161.283 77.917 159.55 79.389 158.078C80.8917 156.606 82.6397 155.471 84.633 154.674C86.6263 153.877 88.7577 153.478 91.027 153.478C93.327 153.478 95.4584 153.877 97.421 154.674C99.4144 155.471 101.162 156.606 102.665 158.078C104.168 159.55 105.333 161.283 106.161 163.276C107.02 165.269 107.449 167.477 107.449 169.9C107.449 172.323 107.02 174.546 106.161 176.57C105.333 178.563 104.168 180.296 102.665 181.768C101.162 183.209 99.4144 184.329 97.421 185.126C95.4584 185.923 93.327 186.322 91.027 186.322ZM91.073 181.032C93.005 181.032 94.7223 180.572 96.225 179.652C97.7583 178.701 98.9543 177.398 99.813 175.742C100.702 174.086 101.147 172.139 101.147 169.9C101.147 167.661 100.702 165.714 99.813 164.058C98.9543 162.402 97.7583 161.114 96.225 160.194C94.7223 159.243 93.005 158.768 91.073 158.768C89.0797 158.768 87.3163 159.243 85.783 160.194C84.2803 161.114 83.0997 162.402 82.241 164.058C81.3823 165.714 80.953 167.661 80.953 169.9C80.953 172.108 81.3823 174.055 82.241 175.742C83.0997 177.429 84.2803 178.732 85.783 179.652C87.3163 180.572 89.0797 181.032 91.073 181.032ZM130.553 163.736C130.553 162.295 130.108 161.145 129.219 160.286C128.36 159.427 127.011 158.998 125.171 158.998H118.317V168.52H125.171C126.397 168.52 127.409 168.336 128.207 167.968C129.004 167.569 129.587 167.017 129.955 166.312C130.353 165.576 130.553 164.717 130.553 163.736ZM125.355 153.8C127.961 153.8 130.108 154.26 131.795 155.18C133.512 156.069 134.785 157.281 135.613 158.814C136.471 160.317 136.901 161.957 136.901 163.736C136.901 164.932 136.686 166.128 136.257 167.324C135.827 168.489 135.153 169.563 134.233 170.544C133.313 171.495 132.117 172.261 130.645 172.844C129.203 173.427 127.44 173.718 125.355 173.718H118.317V186H112.107V153.8H125.355ZM128.851 171.648L137.545 186H130.599L122.273 171.648H128.851ZM148.504 186H142.294V153.8H149.378L159.636 177.904L169.894 153.8H176.978V186H170.768V165.208L162.074 186H157.198L148.504 165.208V186ZM197.938 158.998H196.282L186.806 186H180.412L191.958 153.8H202.216L213.762 186H207.368L197.938 158.998ZM187.404 173.396H206.172V178.594H187.404V173.396ZM215.66 153.8H241.788V158.998H231.852V186H225.642V158.998H215.66V153.8ZM246.423 153.8H252.633V186H246.423V153.8ZM273.769 186.322C271.5 186.322 269.369 185.923 267.375 185.126C265.382 184.329 263.634 183.209 262.131 181.768C260.659 180.296 259.494 178.563 258.635 176.57C257.777 174.546 257.347 172.323 257.347 169.9C257.347 167.477 257.777 165.269 258.635 163.276C259.494 161.283 260.659 159.55 262.131 158.078C263.634 156.606 265.382 155.471 267.375 154.674C269.369 153.877 271.5 153.478 273.769 153.478C276.069 153.478 278.201 153.877 280.163 154.674C282.157 155.471 283.905 156.606 285.407 158.078C286.91 159.55 288.075 161.283 288.903 163.276C289.762 165.269 290.191 167.477 290.191 169.9C290.191 172.323 289.762 174.546 288.903 176.57C288.075 178.563 286.91 180.296 285.407 181.768C283.905 183.209 282.157 184.329 280.163 185.126C278.201 185.923 276.069 186.322 273.769 186.322ZM273.815 181.032C275.747 181.032 277.465 180.572 278.967 179.652C280.501 178.701 281.697 177.398 282.555 175.742C283.445 174.086 283.889 172.139 283.889 169.9C283.889 167.661 283.445 165.714 282.555 164.058C281.697 162.402 280.501 161.114 278.967 160.194C277.465 159.243 275.747 158.768 273.815 158.768C271.822 158.768 270.059 159.243 268.525 160.194C267.023 161.114 265.842 162.402 264.983 164.058C264.125 165.714 263.695 167.661 263.695 169.9C263.695 172.108 264.125 174.055 264.983 175.742C265.842 177.429 267.023 178.732 268.525 179.652C270.059 180.572 271.822 181.032 273.815 181.032ZM321.483 153.8V186H315.135L301.059 163.644V186H294.849V153.8H301.151L315.273 176.156V153.8H321.483ZM339.06 169.9C339.06 167.477 339.474 165.269 340.302 163.276C341.13 161.252 342.28 159.519 343.752 158.078C345.224 156.606 346.941 155.471 348.904 154.674C350.897 153.877 353.044 153.478 355.344 153.478C358.656 153.478 361.585 154.275 364.13 155.87C366.706 157.434 368.638 159.688 369.926 162.632L364.728 164.15C364.053 162.862 363.21 161.819 362.198 161.022C361.217 160.225 360.143 159.642 358.978 159.274C357.813 158.906 356.632 158.722 355.436 158.722C353.473 158.722 351.725 159.197 350.192 160.148C348.659 161.068 347.463 162.371 346.604 164.058C345.776 165.745 345.362 167.692 345.362 169.9C345.362 172.108 345.776 174.055 346.604 175.742C347.463 177.398 348.659 178.701 350.192 179.652C351.725 180.603 353.473 181.078 355.436 181.078C356.663 181.078 357.874 180.894 359.07 180.526C360.297 180.127 361.431 179.468 362.474 178.548C363.517 177.628 364.406 176.401 365.142 174.868L370.248 176.294C368.929 179.637 366.967 182.151 364.36 183.838C361.753 185.494 358.748 186.322 355.344 186.322C353.044 186.322 350.897 185.923 348.904 185.126C346.941 184.329 345.224 183.194 343.752 181.722C342.28 180.25 341.13 178.517 340.302 176.524C339.474 174.5 339.06 172.292 339.06 169.9ZM398.071 158.998H381.649V167.186H393.931V172.2H381.649V180.802H398.071V186H375.439V153.8H398.071V158.998ZM430.059 153.8V186H423.711L409.635 163.644V186H403.425V153.8H409.727L423.849 176.156V153.8H430.059ZM434.744 153.8H460.872V158.998H450.936V186H444.726V158.998H434.744V153.8ZM488.139 158.998H471.717V167.186H483.999V172.2H471.717V180.802H488.139V186H465.507V153.8H488.139V158.998ZM511.939 163.736C511.939 162.295 511.495 161.145 510.605 160.286C509.747 159.427 508.397 158.998 506.557 158.998H499.703V168.52H506.557C507.784 168.52 508.796 168.336 509.593 167.968C510.391 167.569 510.973 167.017 511.341 166.312C511.74 165.576 511.939 164.717 511.939 163.736ZM506.741 153.8C509.348 153.8 511.495 154.26 513.181 155.18C514.899 156.069 516.171 157.281 516.999 158.814C517.858 160.317 518.287 161.957 518.287 163.736C518.287 164.932 518.073 166.128 517.643 167.324C517.214 168.489 516.539 169.563 515.619 170.544C514.699 171.495 513.503 172.261 512.031 172.844C510.59 173.427 508.827 173.718 506.741 173.718H499.703V186H493.493V153.8H506.741ZM510.237 171.648L518.931 186H511.985L503.659 171.648H510.237Z" fill="#212121"/>
<defs>
<clipPath id="clip0_1715_650">
<rect width="112" height="112" fill="white"/>
</clipPath>
<clipPath id="clip1_1715_650">
<rect width="112.34" height="112.34" fill="white"/>
</clipPath>
</defs>
</svg>
