<svg width="112" height="112" viewBox="0 0 112 112" fill="none" xmlns="http://www.w3.org/2000/svg">
<g clip-path="url(#clip0_1715_653)">
<g clip-path="url(#clip1_1715_653)">
<path d="M82.78 73.42C83.9097 72.2848 84.7903 70.9264 85.3655 69.4317C85.9407 67.937 86.198 66.3388 86.1208 64.7391C86.0437 63.1394 85.6338 61.5733 84.9174 60.1409C84.2009 58.7085 83.1937 57.4413 81.96 56.42C79.6858 54.6126 76.8215 53.7141 73.9225 53.8989C71.0234 54.0837 68.2963 55.3385 66.27 57.42L61.83 61.86L57.15 66.5C54.6109 69.1219 51.5755 71.2124 48.2206 72.6496C44.8656 74.0869 41.2582 74.8422 37.6085 74.8715C33.9588 74.9008 30.3397 74.2035 26.9622 72.8203C23.5846 71.4371 20.516 69.3957 17.9352 66.8148C15.3543 64.234 13.3129 61.1654 11.9297 57.7878C10.5465 54.4103 9.84925 50.7912 9.87856 47.1415C9.90786 43.4918 10.6631 39.8844 12.1004 36.5294C13.5376 33.1745 15.6281 30.1391 18.25 27.6L22.92 22.92C24.8005 21.0437 26.0819 18.6515 26.6018 16.0464C27.1216 13.4413 26.8567 10.7405 25.8405 8.28613C24.8242 5.83173 23.1024 3.73415 20.8931 2.25907C18.6838 0.783991 16.0865 -0.00222627 13.43 4.73495e-06C9.86814 4.73495e-06 6.45217 1.41495 3.93356 3.93356C1.41494 6.45217 0 9.86815 0 13.43L0 98.91C0 102.472 1.41494 105.888 3.93356 108.406C6.45217 110.925 9.86814 112.34 13.43 112.34H38.3C40.064 112.341 41.8109 111.994 43.4409 111.32C45.071 110.646 46.5522 109.657 47.8 108.41L82.78 73.42Z" fill="#15B788"/>
<path d="M73.9999 1.88292e-06C72.2359 -0.000932173 70.489 0.345658 68.859 1.01998C67.2289 1.69429 65.7477 2.68313 64.4999 3.93L29.4999 38.93C27.3437 41.0968 26.1366 44.0314 26.1441 47.0883C26.1516 50.1451 27.3731 53.0738 29.5399 55.23C31.7067 57.3862 34.6414 58.5933 37.6982 58.5858C40.755 58.5783 43.6837 57.3568 45.8399 55.19L50.5099 50.51L54.7799 46.25C65.3599 35.66 82.5999 35 93.4999 45.26C96.1779 47.786 98.3221 50.8234 99.8056 54.1927C101.289 57.5619 102.082 61.1944 102.137 64.8753C102.192 68.5563 101.508 72.2109 100.126 75.6229C98.7437 79.0349 96.6912 82.1351 94.0899 84.74L89.4199 89.42C87.5394 91.2963 86.2581 93.6885 85.7382 96.2936C85.2183 98.8987 85.4832 101.599 86.4995 104.054C87.5157 106.508 89.2375 108.606 91.4468 110.081C93.6561 111.556 96.2535 112.342 98.9099 112.34C102.472 112.34 105.888 110.925 108.406 108.406C110.925 105.888 112.34 102.472 112.34 98.91V13.43C112.34 9.86814 110.925 6.45217 108.406 3.93356C105.888 1.41494 102.472 1.88292e-06 98.9099 1.88292e-06H73.9999Z" fill="#1395BA"/>
</g>
</g>
<defs>
<clipPath id="clip0_1715_653">
<rect width="112" height="112" fill="white"/>
</clipPath>
<clipPath id="clip1_1715_653">
<rect width="112.34" height="112.34" fill="white"/>
</clipPath>
</defs>
</svg>
